<svg width="50" height="50" viewBox="0 0 50 50" fill="none" xmlns="http://www.w3.org/2000/svg">
<g clip-path="url(#clip0_92_1550)">
<path d="M49.5148 25.1285C49.5148 37.398 40.5324 47.5483 28.7878 49.4209V32.2887H34.7915H35.2201L35.2856 31.8651L36.3068 25.2597L36.3959 24.6833H35.8126H28.7878V21.5728C28.7878 20.2417 29.0075 19.0474 29.4909 18.2037C29.9554 17.393 30.6639 16.8952 31.7521 16.8952H35.8777H36.3777V16.3952V10.6294V10.1925L35.9448 10.1339L35.9085 10.1289C35.1551 10.0268 33.6031 9.81639 30.7241 9.81639C27.616 9.81639 25.0664 10.6385 23.299 12.4769C21.535 14.3117 20.6307 17.0757 20.6307 20.7881V24.6833H14.9137H14.4137V25.1833V31.7887V32.2887H14.9137H20.6307V49.3586C9.06002 47.3395 0.257812 37.2747 0.257812 25.1285C0.257812 11.5269 11.2847 0.5 24.8863 0.5C38.4879 0.5 49.5148 11.5269 49.5148 25.1285Z" fill="#039BE5" stroke="#481CA4"/>
</g>
<defs>
<clipPath id="clip0_92_1550">
<rect width="50" height="50" fill="white"/>
</clipPath>
</defs>
</svg>
