<svg width="50" height="50" viewBox="0 0 50 50" fill="none" xmlns="http://www.w3.org/2000/svg">
<g clip-path="url(#clip0_92_1549)">
<path d="M25 49.5C11.469 49.5 0.49999 38.531 0.5 25C0.50001 11.469 11.469 0.499999 25 0.5C38.531 0.500001 49.5 11.469 49.5 25C49.5 38.531 38.531 49.5 25 49.5Z" fill="url(#paint0_radial_92_1549)" stroke="#481CA4"/>
<path d="M24.9375 11.8125C29.25 11.8125 29.7188 11.8125 31.4063 11.9063C33 12 33.8438 12.2813 34.4062 12.4688C35.1562 12.75 35.7188 13.125 36.2812 13.6875C36.8438 14.25 37.2188 14.8125 37.5 15.5625C37.6875 16.125 37.9688 16.9688 38.0625 18.5625C38.0625 20.1563 38.0625 20.625 38.0625 24.9375C38.0625 29.25 38.0625 29.7188 37.9688 31.4063C37.875 33 37.5938 33.8437 37.4063 34.4062C37.125 35.1562 36.75 35.7187 36.1875 36.2812C35.625 36.8437 35.0625 37.2188 34.3125 37.5C33.75 37.6875 32.9062 37.9688 31.3125 38.0625C29.7188 38.0625 29.25 38.0625 24.9375 38.0625C20.625 38.0625 20.1563 38.0625 18.4688 37.9688C16.875 37.875 16.0312 37.5938 15.4688 37.4062C14.7188 37.125 14.1562 36.75 13.5938 36.1875C13.0312 35.625 12.6563 35.0625 12.375 34.3125C12.1875 33.75 11.9063 32.9062 11.8125 31.3125C11.8125 29.7188 11.8125 29.25 11.8125 24.9375C11.8125 20.625 11.8125 20.1562 11.9063 18.4688C12 16.875 12.2813 16.0312 12.4688 15.4687C12.75 14.7187 13.125 14.1562 13.6875 13.5937C14.25 13.0312 14.8125 12.6563 15.5625 12.375C16.125 12.1875 16.9688 11.9062 18.5625 11.8125C20.1563 11.8125 20.625 11.8125 24.9375 11.8125ZM24.9375 9C20.625 9 20.0625 9 18.375 9.09375C16.6875 9.1875 15.5625 9.46875 14.5312 9.84375C13.5 10.2187 12.5625 10.7812 11.7187 11.7187C10.875 12.6562 10.3125 13.5 9.84375 14.5312C9.46875 15.5625 9.1875 16.6875 9.09375 18.375C9 20.0625 9 20.625 9 24.9375C9 29.25 9 29.8125 9.09375 31.5C9.1875 33.1875 9.46875 34.3125 9.84375 35.3437C10.2187 36.375 10.7812 37.3125 11.7187 38.1562C12.5625 39 13.5 39.5625 14.5312 40.0312C15.5625 40.4062 16.6875 40.6875 18.375 40.7813C20.0625 40.875 20.625 40.875 24.9375 40.875C29.25 40.875 29.8125 40.875 31.5 40.7813C33.1875 40.6875 34.3125 40.4062 35.3438 40.0312C36.375 39.6562 37.3125 39.0937 38.1562 38.1562C39 37.3125 39.5625 36.375 40.0312 35.3437C40.4062 34.3125 40.6875 33.1875 40.7813 31.5C40.875 29.8125 40.875 29.25 40.875 24.9375C40.875 20.625 40.875 20.0625 40.7813 18.375C40.6875 16.6875 40.4062 15.5625 40.0312 14.5312C39.6562 13.5 39.0938 12.5625 38.1562 11.7187C37.2188 10.875 36.375 10.3125 35.3438 9.84375C34.3125 9.46875 33.1875 9.1875 31.5 9.09375C29.8125 9 29.25 9 24.9375 9Z" fill="white"/>
<path d="M24.9375 16.5C20.25 16.5 16.5 20.25 16.5 24.9375C16.5 29.625 20.25 33.375 24.9375 33.375C29.625 33.375 33.375 29.625 33.375 24.9375C33.375 20.25 29.625 16.5 24.9375 16.5ZM24.9375 30.5625C21.8438 30.5625 19.3125 28.0312 19.3125 24.9375C19.3125 21.8438 21.8438 19.3125 24.9375 19.3125C28.0313 19.3125 30.5625 21.8438 30.5625 24.9375C30.5625 28.0312 28.0313 30.5625 24.9375 30.5625Z" fill="white"/>
<path d="M33.375 18.375C34.4105 18.375 35.25 17.5355 35.25 16.5C35.25 15.4645 34.4105 14.625 33.375 14.625C32.3395 14.625 31.5 15.4645 31.5 16.5C31.5 17.5355 32.3395 18.375 33.375 18.375Z" fill="white"/>
</g>
<defs>
<radialGradient id="paint0_radial_92_1549" cx="0" cy="0" r="1" gradientUnits="userSpaceOnUse" gradientTransform="translate(10.3358 60.1039) scale(75.7017)">
<stop offset="0.073" stop-color="#EACC7B"/>
<stop offset="0.184" stop-color="#ECAA59"/>
<stop offset="0.307" stop-color="#EF802E"/>
<stop offset="0.358" stop-color="#EF6D3A"/>
<stop offset="0.46" stop-color="#F04B50"/>
<stop offset="0.516" stop-color="#F03E58"/>
<stop offset="0.689" stop-color="#DB359E"/>
<stop offset="0.724" stop-color="#CE37A4"/>
<stop offset="0.789" stop-color="#AC3CB4"/>
<stop offset="0.877" stop-color="#7544CF"/>
<stop offset="0.98" stop-color="#2B4FF2"/>
</radialGradient>
<clipPath id="clip0_92_1549">
<rect width="50" height="50" fill="white"/>
</clipPath>
</defs>
</svg>
