<svg width="63" height="28" viewBox="0 0 63 28" fill="none" xmlns="http://www.w3.org/2000/svg">
<g clip-path="url(#clip0_70_1468)">
<g clip-path="url(#clip1_70_1468)">
<path d="M55.4326 13.3116L55.4047 13.3395C55.5999 12.8098 55.9901 12.6147 56.3246 12.6147C56.7985 12.6147 57.2167 12.9771 57.2167 13.5067C57.2167 13.6182 57.2167 13.7576 57.1609 13.9249C56.1853 16.4338 54.1224 17.716 52.1153 17.9112C51.1954 19.4722 49.6901 20.6151 47.5436 20.6151C44.4772 20.6151 43.1113 18.1899 43.1113 15.5417C43.1113 12.2802 45.1742 8.65625 48.6308 8.65625C49.3834 8.65625 50.0246 8.82358 50.5543 9.04655C52.1153 9.63193 53.1189 11.6669 53.1189 13.8412C53.1189 14.5381 53.0631 15.235 52.8958 15.9041C53.9273 15.5417 54.9029 14.7054 55.4326 13.3116ZM49.6065 10.9421V10.9143C48.9932 10.9143 48.6308 11.7226 48.6308 12.6983C48.6308 14.12 49.4113 15.4302 50.6379 15.9041C50.833 15.2908 50.9167 14.5939 50.9167 13.7855C50.9167 12.2244 50.4427 10.9421 49.6065 10.9421ZM47.5715 18.5802C48.352 18.5802 49.1326 18.2457 49.7458 17.5488C47.9339 16.7403 46.791 14.8448 46.791 13.0328C46.791 12.4195 46.9025 11.7784 47.0698 11.2209C45.9547 12.1408 45.3136 13.9528 45.3136 15.5417C45.3136 17.6045 46.2892 18.5802 47.5715 18.5802Z" fill="black"/>
<path d="M43.5432 13.311L43.5153 13.3389C43.7105 12.8092 44.045 12.5863 44.3794 12.5863C44.8534 12.5863 45.3272 13.0044 45.3272 13.534C45.3272 13.6734 45.2994 13.7849 45.2436 13.9243C44.1565 16.5725 42.5396 19.6668 39.9472 21.4787L39.8914 22.0363C39.5848 25.3814 37.8844 27.4999 35.7379 27.4999C34.121 27.4999 33.1732 26.3849 33.1732 25.0747C33.1732 22.7053 35.5984 21.8411 37.8565 20.3916C37.9122 19.8061 37.9401 19.1371 37.9679 18.3844C36.8529 19.611 35.6542 20.1128 34.5949 20.1128C32.4763 20.1128 30.748 18.3844 30.748 15.7363C30.748 11.6663 33.4241 8.99023 36.4069 8.99023H36.4348C38.4697 8.99023 40.6441 10.0774 40.6441 12.0287C40.6441 12.6699 40.3653 16.1544 40.1423 18.8584C41.6476 17.4367 42.902 15.123 43.5432 13.311ZM34.9015 18.1057C35.933 18.1057 37.3268 17.4646 38.191 14.3146C38.3303 13.6177 38.4139 13.0044 38.3861 12.2796C38.2189 11.527 37.5777 11.0809 36.6577 11.0809C34.7622 11.0809 32.9503 12.8929 32.9503 15.6526C32.9503 17.3252 33.7308 18.1057 34.9015 18.1057ZM35.9608 25.465H35.9887C36.5741 25.465 37.2153 25.0747 37.6334 22.5659C36.4069 23.2906 35.2639 24.0154 35.2639 24.8796C35.2639 25.242 35.5427 25.465 35.9608 25.465Z" fill="black"/>
<path d="M31.2372 13.3116L31.2094 13.3395C31.4045 12.8098 31.7948 12.6147 32.1293 12.6147C32.6032 12.6147 33.0213 12.9771 33.0213 13.5067C33.0213 13.6182 33.0213 13.7576 32.9656 13.9249C31.9899 16.4338 29.9271 17.716 27.92 17.9112C27.0001 19.4722 25.4948 20.6151 23.3483 20.6151C20.2819 20.6151 18.916 18.1899 18.916 15.5417C18.916 12.2802 20.9788 8.65625 24.4355 8.65625C25.1881 8.65625 25.8293 8.82358 26.3589 9.04655C27.92 9.63193 28.9236 11.6669 28.9236 13.8412C28.9236 14.5381 28.8678 15.235 28.7005 15.9041C29.732 15.5417 30.7076 14.7054 31.2372 13.3116ZM25.4112 10.9421V10.9143C24.7979 10.9143 24.4355 11.7226 24.4355 12.6983C24.4355 14.12 25.216 15.4302 26.4426 15.9041C26.6377 15.2908 26.7213 14.5939 26.7213 13.7855C26.7213 12.2244 26.2474 10.9421 25.4112 10.9421ZM23.3762 18.5802C24.1567 18.5802 24.9372 18.2457 25.5505 17.5488C23.7386 16.7403 22.5957 14.8448 22.5957 13.0328C22.5957 12.4195 22.7072 11.7784 22.8744 11.2209C21.7594 12.1408 21.1182 13.9528 21.1182 15.5417C21.1182 17.6045 22.0939 18.5802 23.3762 18.5802Z" fill="black"/>
<path d="M20.3322 12.4311C19.9419 12.4311 19.6074 12.6263 19.3843 13.1559C18.6596 14.9958 17.1542 18.1179 15.621 18.1179C14.6556 18.1179 13.9085 17.8996 13.1536 17.679C12.3826 17.4537 11.6035 17.2259 10.5753 17.2259C10.2129 17.2259 9.71115 17.2817 9.23725 17.3653C10.6649 15.4185 11.1983 13.0607 11.7151 8.60396C10.742 8.54201 9.95045 8.36224 9.37349 8.18066C8.75725 13.833 8.05746 15.9882 5.50178 18.1179C5.16726 18.3967 5 18.787 5 19.1773C5 19.7906 5.52966 20.3202 6.1987 20.3202C6.42172 20.3202 6.6726 20.2366 6.92349 20.1251C8.3452 19.4839 9.20937 19.3167 10.2687 19.3167C10.9423 19.3167 11.7484 19.5093 12.6114 19.7155C13.6054 19.9531 14.675 20.2087 15.7047 20.2087C17.9626 20.2087 19.4401 18.0065 21.0848 13.7413C21.1685 13.602 21.1963 13.4347 21.1963 13.2953C21.1963 12.7656 20.7782 12.4311 20.3322 12.4311Z" fill="black"/>
<path fill-rule="evenodd" clip-rule="evenodd" d="M9.51414 7.02715C10.019 7.20338 10.8071 7.40855 11.8289 7.46925L11.9962 7.46916C15.1462 7.46916 17.2091 5.5178 17.2091 3.17616C17.2091 1.67082 16.0383 0.5 14.3935 0.5C12.1913 0.5 10.6581 2.00534 9.87753 4.98814C8.90185 4.45848 8.23281 3.51068 7.89829 2.31199C7.73102 1.72657 7.36863 1.36417 6.86684 1.36417C6.25356 1.36417 5.86328 1.83808 5.86328 2.47924C5.86328 4.37486 7.34075 6.18684 9.51513 7.02314L9.51414 7.02715ZM12.1634 5.43417C12.5815 3.51068 13.2506 2.59075 14.1427 2.59075C14.6166 2.59075 14.9232 2.86952 14.9232 3.3713C14.9232 4.29123 13.9475 5.37841 12.1634 5.43417Z" fill="black"/>
</g>
</g>
<defs>
<clipPath id="clip0_70_1468">
<rect width="63" height="27" fill="white" transform="translate(0 0.5)"/>
</clipPath>
<clipPath id="clip1_70_1468">
<rect width="52.5" height="27" fill="white" transform="translate(5 0.5)"/>
</clipPath>
</defs>
</svg>
