<svg width="50" height="50" viewBox="0 0 50 50" fill="none" xmlns="http://www.w3.org/2000/svg">
<g clip-path="url(#clip0_92_1548)">
<path d="M1.27539 48.9363L4.61616 36.7401C2.55515 33.1711 1.47132 29.121 1.47256 24.973C1.47876 11.9955 12.0393 1.4375 25.018 1.4375C31.3163 1.43998 37.2265 3.89162 41.6722 8.33978C46.1167 12.7892 48.5646 18.7019 48.5621 24.9916C48.5571 37.969 37.9941 48.5283 25.018 48.5283H25.008C21.0683 48.527 17.1955 47.5387 13.7568 45.6624L1.27539 48.9363Z" fill="white"/>
<path d="M0.835519 49.3737C0.68051 49.2162 0.619746 48.9868 0.67803 48.7747L3.9506 36.8253C1.92183 33.2216 0.85164 29.1294 0.85412 24.9751C0.859081 11.6542 11.6986 0.818359 25.0183 0.818359M0.835519 49.3737C0.953327 49.4927 1.11206 49.5572 1.27575 49.5572C1.32907 49.5572 1.38115 49.551 1.43324 49.5361L13.679 46.3255C17.1512 48.172 21.0637 49.148 25.0183 49.1492C38.3368 49.1492 49.1775 38.3122 49.1825 24.9925C49.185 18.5391 46.6738 12.4701 42.1116 7.90293M0.835519 49.3737L1.19092 49.022C1.19108 49.0221 1.19123 49.0223 1.19139 49.0224M0.835519 49.3737L1.19187 49.0229C1.19171 49.0228 1.19155 49.0226 1.19139 49.0224M42.1116 7.90293C37.5493 3.33696 31.4791 0.82084 25.0183 0.818359M42.1116 7.90293L41.7579 8.25634M42.1116 7.90293L41.7578 8.25629C41.7578 8.25631 41.7578 8.25633 41.7579 8.25634M25.0183 0.818359V1.31836C31.3466 1.32084 37.2895 3.78431 41.7579 8.25634M25.0183 0.818359L25.0181 1.31836C11.9746 1.31846 1.35898 11.9305 1.35412 24.9753L1.35412 24.9754C1.35169 29.0439 2.39988 33.0516 4.3863 36.58L4.48713 36.7591L4.43284 36.9574L1.16027 48.9068L1.16015 48.9072C1.1498 48.9449 1.16024 48.9904 1.19139 49.0224M1.19139 49.0224C1.21385 49.0449 1.24382 49.0572 1.27575 49.0572C1.28296 49.0572 1.28763 49.0568 1.2904 49.0564C1.29308 49.0561 1.29473 49.0557 1.29588 49.0554L1.3064 49.0523L1.30643 49.0525L13.5522 45.8419L13.7412 45.7923L13.9138 45.8841C17.3135 47.692 21.1453 48.648 25.0183 48.6492V49.1462L25.0185 48.6492C38.0607 48.6491 48.6776 38.0359 48.6825 24.9923C48.6849 18.6716 46.2264 12.7298 41.7579 8.25634" fill="white" stroke="#481CA4"/>
<path d="M38.86 11.1507C35.1645 7.45275 30.2526 5.4153 25.0244 5.41406C14.2307 5.41406 5.45223 14.1889 5.44727 24.9751C5.44603 28.6718 6.48025 32.2705 8.43958 35.3868L8.90585 36.1271L6.92792 43.3456L14.3349 41.4036L15.0504 41.8278C18.0539 43.611 21.4989 44.5534 25.0108 44.5547H25.0182C35.8044 44.5547 44.5829 35.7786 44.5866 24.9912C44.5879 19.7643 42.5554 14.8486 38.86 11.1507Z" fill="#40C351"/>
<path fill-rule="evenodd" clip-rule="evenodd" d="M19.1328 15.136C18.6926 14.1563 18.2288 14.1365 17.8084 14.1191C17.4649 14.1043 17.0731 14.1055 16.6812 14.1055C16.2893 14.1055 15.6519 14.2531 15.1125 14.8421C14.5731 15.4311 13.0527 16.8535 13.0527 19.7479C13.0527 22.6422 15.1609 25.4398 15.4548 25.8317C15.7487 26.2235 19.5247 32.3533 25.5044 34.7119C30.4734 36.6712 31.4853 36.2818 32.5641 36.1839C33.643 36.0859 36.045 34.7615 36.5349 33.3875C37.0247 32.0135 37.0247 30.8366 36.8784 30.5911C36.7308 30.3456 36.3389 30.1992 35.7511 29.9041C35.1633 29.609 32.2702 28.1866 31.7308 27.9907C31.1914 27.7947 30.7995 27.6968 30.4064 28.2858C30.0145 28.8736 28.8873 30.1992 28.5438 30.5911C28.2003 30.9842 27.8568 31.0338 27.269 30.7387C26.6812 30.4435 24.7864 29.8235 22.5381 27.8195C20.7896 26.2608 19.609 24.3349 19.2655 23.7459C18.922 23.1581 19.2283 22.8394 19.5235 22.5455C19.7876 22.2813 20.1113 21.8585 20.4064 21.515C20.7003 21.1715 20.7983 20.9259 20.9942 20.5341C21.1901 20.141 21.0922 19.7975 20.9446 19.5036C20.7995 19.2084 19.6562 16.2992 19.1328 15.136Z" fill="white"/>
</g>
<defs>
<clipPath id="clip0_92_1548">
<rect width="50" height="50" fill="white"/>
</clipPath>
</defs>
</svg>
